<svg width="16" height="18" fill="none" xmlns="http://www.w3.org/2000/svg"><path fill-rule="evenodd" clip-rule="evenodd" d="M-.5 3.177l.074-.31C-.366 2.746 1.077 0 6.931 0c5.857 0 7.274 2.754 7.33 2.873l.07.304c0 12.676-6.973 14.384-7.27 14.451l-.278.002C6.484 17.568-.5 15.948-.5 3.177zm11.401 7.09c-.049.204-1.182 4.133-3.804 4.133s-3.756-3.929-3.802-4.133l-.119-.517.421.164.017.006c.205.077 2.272.855 3.485.855 1.236 0 3.359-.808 3.493-.859l.007-.002.42-.164-.118.517zm-4.437-3.6a.247.247 0 00-.04-.254 1.117 1.117 0 01-.043-.071C6.181 5.995 5.32 4.5 4.482 4.5c-.957 0-2.265 1.61-2.608 2.033a1.758 1.758 0 01-.083.1.247.247 0 00-.068.276.239.239 0 00.222.153l4.311-.246a.242.242 0 00.208-.149zm5.65.395l-4.3-.246a.242.242 0 01-.207-.149.247.247 0 01.04-.254.992.992 0 00.042-.071c.2-.347 1.063-1.842 1.9-1.842.958 0 2.265 1.61 2.608 2.033.046.057.075.093.083.1a.248.248 0 01.068.276.246.246 0 01-.235.153z" fill="#F2F0F0"/></svg>