<svg width="18" height="18" fill="none" xmlns="http://www.w3.org/2000/svg"><path fill-rule="evenodd" clip-rule="evenodd" d="M5.95 8.223c.09-.067.203-.072.288.038l1.1 1.42L8.622 8.37l-1.31-1.34c-.096-.1-.092-.23-.033-.332.693-1.224.322-2.5-.673-3.46L3.418.23c-.209-.195-.417-.21-.599 0a.503.503 0 000 .689l2.64 3.034a.53.53 0 010 .728l-.015.016c-.192.221-.44.221-.633 0L2.172 1.662c-.182-.209-.417-.209-.599 0a.502.502 0 000 .69l2.639 3.035a.53.53 0 010 .727l-.014.016c-.192.221-.44.221-.633 0L.926 3.095c-.182-.209-.417-.21-.599 0s-.17.45 0 .689l2.615 3.668c.835 1.143 1.944 1.568 3.008.771zm6.057-6.21c-1.483 1.706-1.607 3.566-1.138 4.79a.325.325 0 01-.06.35l-7.805 7.975c-.66.675-.63 1.478.016 2.221.646.744 1.344.778 1.931.019l6.936-8.976a.233.233 0 01.304-.07c1.064.54 2.681.397 4.164-1.308 1.568-1.802 1.947-4.433.727-5.836-1.22-1.403-3.508-.967-5.075.835zm-1.057 8.736l4.28 4.38c.66.675.63 1.478-.016 2.22-.646.742-1.344.778-1.93.019L9.557 12.55l1.393-1.802z" fill="#F2F0F0"/></svg>