<svg width="40" height="40" fill="none" xmlns="http://www.w3.org/2000/svg"><path d="M19.069 39.716l-.012-.007-.038-.026a31.085 31.085 0 01-.64-.451 52.364 52.364 0 01-7.09-6.21c-3.817-4.03-7.957-9.852-7.957-16.355a16.667 16.667 0 1133.333 0c0 6.503-4.14 12.326-7.956 16.354a52.364 52.364 0 01-7.09 6.211 31.085 31.085 0 01-.64.451l-.039.026-.011.007-.004.003s-.002.001-.926-1.386l.924 1.387a1.67 1.67 0 01-1.85 0l-.005-.004z" fill="#FF591D"/><path fill-rule="evenodd" clip-rule="evenodd" d="M19.999 13.333a3.333 3.333 0 100 6.667 3.333 3.333 0 000-6.667zm-6.667 3.334a6.667 6.667 0 1113.333 0 6.667 6.667 0 01-13.333 0z" fill="#fff"/></svg>