<svg width="18" height="18" fill="none" xmlns="http://www.w3.org/2000/svg"><path fill-rule="evenodd" clip-rule="evenodd" d="M9.772 6.834c1.864-.001 3.374-1.524 3.373-3.402-.001-1.878-1.512-3.4-3.376-3.399-1.864 0-3.374 1.523-3.374 3.4.001 1.88 1.513 3.401 3.377 3.401zm7.044.762a.819.819 0 01.803.057.835.835 0 01.37.7v7.955a.842.842 0 01-.38.716.85.85 0 01-.45.131.824.824 0 01-.343-.074l-4.263-1.961v1.193a.832.832 0 01-.83.835H.83a.832.832 0 01-.83-.835v-7.96a.84.84 0 01.247-.596.826.826 0 01.594-.24h10.895c.457 0 .829.374.829.835v1.193l4.25-1.95zM2.7 9a.9.9 0 000 1.8h7.2a.9.9 0 100-1.8H2.7zm2.619-3.845A2.679 2.679 0 012.842 6.82 2.691 2.691 0 01.166 4.123a2.7 2.7 0 011.652-2.495 2.664 2.664 0 012.92.585 2.71 2.71 0 01.58 2.942z" fill="#F2F0F0"/></svg>