<svg width="18" height="18" fill="none" xmlns="http://www.w3.org/2000/svg"><path fill-rule="evenodd" clip-rule="evenodd" d="M7.299 3.03C6.584 2.343 5.709 2 4.675 2s-1.905.343-2.613 1.03S1 4.55 1 5.526c0 .978.354 1.81 1.062 2.497.708.686 1.58 1.03 2.613 1.03 1.034 0 1.909-.344 2.624-1.03.715-.687 1.073-1.52 1.073-2.497 0-.977-.358-1.809-1.073-2.496zM4.679 7a1.5 1.5 0 100-3 1.5 1.5 0 000 3zm8.002-4.851a1 1 0 01.88 1.474L6.63 16.493a1 1 0 01-.88.526h-.334a1 1 0 01-.88-1.474l6.93-12.87a1 1 0 01.881-.526h.335zM13.675 10c1.034 0 1.909.343 2.624 1.03.715.687 1.073 1.52 1.073 2.497 0 .977-.358 1.809-1.073 2.496-.715.686-1.59 1.03-2.624 1.03s-1.905-.344-2.613-1.03c-.708-.687-1.062-1.52-1.062-2.496 0-.978.354-1.81 1.062-2.497.708-.687 1.58-1.03 2.613-1.03zm1.505 3.5a1.5 1.5 0 11-3 0 1.5 1.5 0 013 0z" fill="#F2F0F0"/></svg>