<svg width="17" height="17" fill="none" xmlns="http://www.w3.org/2000/svg"><path fill-rule="evenodd" clip-rule="evenodd" d="M15.215 11.659c-.896-1.032-2.454-1.406-3.787-1.043L9.942 8.907l4.938-6.562c.398-.54.319-1.29-.177-1.664L13.801 0l-5.8 6.674L2.198 0l-.901.681c-.496.374-.576 1.124-.177 1.664l4.937 6.562-1.486 1.71c-1.334-.364-2.89.01-3.787 1.042a3.104 3.104 0 00-.766 2.405c.1.87.557 1.654 1.286 2.205A3.692 3.692 0 003.52 17c1.068 0 2.064-.442 2.737-1.215.59-.681.863-1.535.765-2.405-.01-.087-.032-.17-.053-.254l-.025-.102L8 11.557l1.057 1.467a4.575 4.575 0 01-.025.102 1.852 1.852 0 00-.052.254c-.099.87.174 1.724.765 2.405.672.773 1.67 1.215 2.736 1.215.803 0 1.589-.26 2.213-.731.73-.55 1.188-1.334 1.287-2.205a3.103 3.103 0 00-.766-2.405zm-10.45 3c-.54.618-1.583.725-2.251.22a1.452 1.452 0 01-.585-1.002 1.409 1.409 0 01.349-1.094 1.637 1.637 0 011.243-.552c.37 0 .717.114 1.006.333.333.25.54.606.585 1.001a1.42 1.42 0 01-.347 1.094zm6.472.001c.537.617 1.582.724 2.25.219.332-.25.54-.606.584-1.001a1.405 1.405 0 00-.348-1.094 1.637 1.637 0 00-1.244-.553c-.37 0-.718.115-1.005.332-.334.25-.54.607-.586 1.003-.043.395.08.784.349 1.094z" fill="#F2F0F0"/></svg>