<svg width="262" height="133" fill="none" xmlns="http://www.w3.org/2000/svg"><path d="M23.416 68.559c1.4-3.315 2.801-6.673 4.158-9.988 1.838-4.405 3.676-8.854 5.602-13.26.306-.654 1.138-1.395 1.794-1.483 3.108-.436 6.215-.654 9.322-.828.438-.044.963.741 1.357 1.177.131.175.044.568.044.873 0 14.83-.044 29.659 0 44.445 0 1.745-.482 2.486-2.276 2.573-3.195.175-6.346.567-10.11.916.306-8.2.569-16.094.875-23.989a7.196 7.196 0 01-.481-.13c-.482 1.133-1.05 2.267-1.488 3.401-1.488 4.013-3.02 8.026-4.42 12.082-.482 1.309-1.095 2.05-2.626 2.007-2.014-.044-4.508.96-5.952.087-1.445-.829-1.882-3.402-2.67-5.278-1.007-2.399-1.926-4.841-2.932-7.284-.438-1.046-.963-2.006-1.882-2.878.262 7.807.525 15.658.787 23.727-4.157.349-8.009.698-12.079 1.047-.043-1.047-.131-1.832-.131-2.617 0-14.655 0-29.354-.044-44.01 0-1.788.525-2.442 2.32-2.485 2.626-.088 5.252-.393 7.834-.698 1.444-.175 2.188.218 2.8 1.657 2.758 6.412 5.646 12.736 8.535 19.104.263.61.613 1.221.963 1.832.175.044.438 0 .7 0zm153.792 11.297c-.044-1.09-.131-1.789-.131-2.486 0-14.7.043-29.354-.044-44.053 0-2.006.613-2.617 2.582-2.66 3.02-.088 6.04-.48 9.453-.742v29.44c.219.088.438.132.657.219.437-.741.919-1.44 1.313-2.224 4.595-9.073 9.147-18.145 13.786-27.217.394-.742 1.4-1.527 2.232-1.657 2.451-.437 4.945-.48 7.396-.786 1.62-.218 2.232.306 2.189 2.007-.088 4.798 0 9.595 0 14.393 0 9.945-.044 19.933 0 29.877 0 2.007-.482 2.835-2.67 2.835-3.02 0-6.084.437-9.453.698V48.888c-.219-.087-.394-.13-.613-.218-.438.654-.919 1.308-1.269 2.006-4.421 8.767-8.885 17.49-13.261 26.301-.744 1.483-1.663 2.18-3.326 2.268-2.758.087-5.646.349-8.841.61zm71.863-35.024c-.438.785-.919 1.57-1.313 2.355-4.421 8.68-8.841 17.36-13.174 26.039-.744 1.483-1.707 2.137-3.37 2.18-2.407.044-4.814.262-7.177.48-1.313.131-1.838-.305-1.838-1.657.043-15.091 0-30.226.087-45.317 0-.611.919-1.701 1.532-1.789 3.02-.436 6.083-.61 9.103-.828 1.532-.131 1.313 1.046 1.313 1.919.044 5.67 0 11.34.044 17.01v8.07c0 .74.131 1.526.175 2.267.175.044.394.087.569.175.35-.567.744-1.09 1.05-1.658 4.639-9.203 9.322-18.406 13.918-27.653.569-1.177 1.225-1.788 2.582-1.831a75.153 75.153 0 006.958-.698c1.882-.306 2.408.349 2.408 2.18-.044 12.126-.044 24.251-.044 36.377 0 2.704-.088 5.364.044 8.069.043 1.57-.307 2.355-2.101 2.399-2.539.043-5.077.349-7.615.697-1.795.262-2.407-.261-2.407-2.137.087-7.85.043-15.702.043-23.553v-2.791c-.35-.175-.569-.262-.787-.305zM144.165 33.753v17.403c.175.087.394.131.569.218.525-.698 1.138-1.352 1.575-2.093 3.152-5.06 6.215-10.163 9.366-15.222.394-.611 1.138-1.353 1.751-1.396 4.42-.48 8.84-.829 13.83-1.265a844.506 844.506 0 01-6.784 9.072c-3.676 4.885-7.309 9.77-11.073 14.568-1.181 1.527-1.094 2.53.132 3.97 5.47 6.41 10.854 12.91 16.237 19.408.394.48.7 1.047 1.313 1.92-4.946.392-9.454.785-14.005 1.046-.569.044-1.357-.697-1.795-1.308-2.844-4.1-5.645-8.287-8.446-12.43-.569-.873-1.27-1.658-2.32-3.054-.219 1.44-.394 2.18-.394 2.922a670.357 670.357 0 000 13.303c0 1.309-.306 1.963-1.794 2.007-2.845.13-5.646.436-8.491.741-1.356.131-1.794-.349-1.794-1.7.044-15.136.044-30.227.087-45.362 0-.61.569-1.745 1.007-1.788 3.458-.393 7.003-.61 11.029-.96zM96.154 87.358v-46.67c0-1.047-.087-2.006 1.445-2.137 9.409-.785 18.819-1.614 28.272-2.399.131 0 .263.087.569.175v11.035c-3.195.305-6.434.61-9.628.916-1.97.174-3.939.48-5.865.436-2.188-.044-2.67.96-2.626 2.922.088 5.714.044 11.471.044 17.185 0 5.234-.044 10.468 0 15.702 0 1.614-.35 2.311-2.188 2.311-2.539 0-5.077.393-7.616.567-.744 0-1.444-.043-2.407-.043z" fill="#e6136a"/><path d="M144.515 120.375v-2.66c0-9.247.044-18.45-.044-27.697-.043-2.093.657-2.66 2.67-2.791 7.571-.567 15.099-1.309 22.671-2.006.35-.044.7 0 1.269 0v7.589c-5.909.523-11.904 1.047-18.032 1.614V99.7c5.559-.48 11.117-.916 16.806-1.395v7.022c-5.558.523-11.16 1.003-16.893 1.526v5.06c6.039-.48 11.992-1.003 18.119-1.483v7.676c-8.797.698-17.506 1.483-26.566 2.268zM55.671 95.427v32.843c-2.626.262-5.252.523-8.096.829v-19.017c-.132-.044-.307-.087-.438-.175-.394.655-.788 1.265-1.138 1.92-2.757 5.452-5.514 10.86-8.184 16.356-.613 1.221-1.27 1.962-2.713 1.962-1.882.044-3.764.262-5.821.437V97.738c2.582-.261 5.12-.48 8.009-.741v19.409c.175.044.306.088.481.131.263-.436.613-.829.832-1.308 2.888-5.714 5.82-11.384 8.622-17.142.7-1.439 1.531-2.268 3.238-2.268 1.62.044 3.283-.218 5.208-.392zm20.657 10.686v-9.16c.044-3.75-.525-3.358 3.283-3.62 1.4-.087 2.757-.261 4.114-.349.219 0 .394.088.744.175v32.581c-2.67.262-5.252.48-8.097.742v-12.387c-3.282.261-6.302.436-9.322.785-.35.043-.831 1.047-.875 1.614-.088 3.533-.044 7.066-.044 10.817-2.8.261-5.383.479-8.096.741V95.209c2.582-.218 5.208-.436 8.052-.654v12.43c3.414-.305 6.653-.567 10.241-.872zm-49.892 24.861c-3.326.262-6.346.567-9.41.698-.525 0-1.181-.654-1.575-1.177-2.232-3.141-4.377-6.325-7.09-9.465v6.978c0 4.711 0 4.755-4.77 4.973-1.05.043-2.145 0-3.414 0-.044-.916-.131-1.658-.131-2.443 0-9.246.043-18.45-.044-27.696-.044-2.007.7-2.704 2.538-2.748 1.795-.044 3.633-.262 5.69-.393v11.341c.175.043.35.13.525.174.394-.611.831-1.178 1.182-1.832 1.882-3.009 3.72-6.106 5.69-9.072.48-.698 1.356-1.44 2.144-1.527 2.713-.392 5.514-.48 8.709-.741-1.357 1.92-2.495 3.533-3.676 5.103-2.626 3.489-5.165 7.022-7.966 10.381-1.181 1.439-.919 2.268.132 3.489 3.457 4.013 6.827 8.113 10.24 12.213.395.48.7 1.003 1.226 1.744zm98.035-8.81V97.04c-2.933.219-5.69.437-8.622.655v-7.72c8.709-.785 17.418-1.527 26.478-2.356 0 2.443.087 4.58-.088 6.717-.043.393-.875 1.004-1.4 1.09a45.601 45.601 0 01-5.427.48c-1.532.044-1.97.698-1.926 2.138.044 7.066-.044 14.088.088 21.154.043 1.701-.569 2.311-2.189 2.355-2.232.174-4.376.436-6.914.611zm81.972-32.582c0-2.399-.087-4.58.044-6.717.044-.392.788-1.046 1.269-1.09 8.315-.742 16.631-1.44 25.165-2.137v7.633c-2.801.305-5.602.567-8.622.915v25.08c-3.063.262-5.908.48-9.015.741V88.972c-3.02.218-5.777.392-8.841.61z" fill="#fff"/><path fill-rule="evenodd" clip-rule="evenodd" d="M78.654 85.376c-.003 1.204-.006 2.43-.006 3.683.74-.066 1.466-.135 2.18-.202 2.58-.242 5.015-.471 7.448-.54 2.101-.087 2.626-.96 2.626-2.965-.065-10.86-.057-21.693-.049-32.54.003-3.618.006-7.237.006-10.859 0-.626-.062-1.252-.129-1.933-.03-.316-.063-.644-.09-.99-2.585.254-5.156.471-7.714.687-5.367.453-10.673.901-15.92 1.669-9.234 1.352-14.486 6.717-15.755 15.571-.832 5.714 1.006 13.129 8.665 15.484.3.066.573.258.917.5.11.076.226.157.353.242-1.927 3.628-3.837 7.241-5.78 10.915-1.279 2.42-2.572 4.866-3.893 7.36l.195-.018c4.605-.43 8.748-.815 12.891-1.116 1.313-.087 2.013-.654 2.582-1.876a325.87 325.87 0 012.83-5.933c1.323-2.729 2.647-5.456 3.867-8.242.818-1.876 2.21-1.693 3.534-1.519l.273.036c.394.043.92 1.526.92 2.355.064 3.35.057 6.7.049 10.231zm-1.772-33.64c.55-.014 1.12-.029 1.722-.056 0 .91.006 1.8.011 2.674.017 2.563.032 4.994-.098 7.4v.002c-.002.567-.919 1.437-1.53 1.525h-.002c-2.67.35-5.34.524-8.053.611a9.013 9.013 0 01-1.54-.079c-2.156-.311-3.42-1.5-3.887-3.541a10.472 10.472 0 01-.131-.639 8.84 8.84 0 01-.132-1.326c-.05-2.42 1.022-4.347 3.283-5.145l.004-.001c1.716-.615 3.62-.828 5.5-1.038a104.591 104.591 0 001.542-.182c1.072-.148 2.144-.175 3.311-.205z" fill="#e6136a"/><path fill-rule="evenodd" clip-rule="evenodd" d="M86.798 107.472c-.005.533-.01 1.067-.01 1.607 0 .654-.004 1.308-.01 1.963-.009 1.308-.019 2.617.01 3.925.044 3.62 1.707 6.281 4.946 7.851 5.252 2.573 10.46 2.006 15.493-.698 4.289-2.311 6.302-6.019 6.215-10.904-.022-1.636-.011-3.271 0-4.907.011-1.635.022-3.271 0-4.907-.044-4.536-2.582-7.894-6.915-9.246-4.289-1.309-8.534-.96-12.56.96-4.596 2.224-7.353 5.8-7.178 11.165.029 1.074.019 2.129.01 3.191zm17.569 7.903c.732-.716 1.101-1.748 1.022-3.068-.094-1.12-.076-2.239-.058-3.373.005-.316.01-.633.012-.952l.002-.43h.044c0-.436.003-.872.005-1.308.009-1.309.017-2.617-.049-3.926-.044-.741-.131-1.744-.613-2.224-1.882-1.788-4.201-1.788-6.52-1.047a7.114 7.114 0 00-1.437.622c-1.27.721-2.065 1.868-2.065 3.609v10.25c0 1.744.92 3.009 2.626 3.184 1.663.174 3.501.087 5.121-.306.783-.195 1.429-.541 1.91-1.031zm139.189-3.854v-9.552c.417-.052.813-.097 1.196-.14.584-.067 1.138-.13 1.693-.209.763-.117 1.536-.204 2.311-.292 1.535-.174 3.076-.349 4.56-.754 5.952-1.658 9.584-7.939 8.49-14.22-.963-5.451-5.471-8.592-12.035-8.2-2.22.12-4.441.317-6.661.513-1.85.164-3.7.328-5.55.447-1.707.087-2.319.655-2.319 2.486.065 7.098.057 14.171.049 21.257-.003 2.363-.006 4.727-.006 7.094.044.698.088 1.396.132 2.312l2.571-.231c1.889-.169 3.687-.329 5.569-.511zm.044-16.836v-8.461a103.72 103.72 0 002.465-.171c1.625-.126 3.244-.25 4.844-.222 1.925.044 2.713 1.527 2.888 3.272.019.184.028.368.029.55.021 1.984-1.007 3.758-2.742 4.16-1.595.289-3.209.444-4.88.604-.852.082-1.718.165-2.604.268zm-41.795 20.626c.765-.072 1.549-.147 2.362-.213a104.29 104.29 0 00-.525-1.458l-.263-.723a4073.991 4073.991 0 01-5.357-14.471c-1.304-3.534-2.609-7.071-3.921-10.608-1.66-4.456-1.706-4.453-6.3-4.168l-.396.024c-2.101.13-2.845 1.047-3.414 2.835-1.471 4.632-3.045 9.24-4.623 13.859-.487 1.427-.975 2.855-1.46 4.286a1127.33 1127.33 0 01-2.167 6.391c-.754 2.212-1.52 4.457-2.297 6.781.333-.037.649-.081.952-.123.769-.107 1.452-.202 2.111-.139 4.464.523 6.871-1.439 7.397-5.888.043-.524.481-1.309.831-1.352.5-.066 1.004-.139 1.509-.212 2.188-.318 4.402-.639 6.5-.355.576.06 1.006 1.335 1.433 2.606.19.563.379 1.126.58 1.581.032.062.057.136.084.211.047.134.095.272.179.356.114.095.232.202.353.311.436.395.908.823 1.354.823 1.674-.03 3.328-.187 5.078-.354zm-10.549-12.949c-.678.047-1.294.089-1.89.126-1.078.072-2.072.138-3.23.223a.566.566 0 01.011-.044h-.011c.831-3.358 1.575-6.455 2.319-9.552a3.46 3.46 0 01.284-.041c.099-.012.192-.023.285-.046l.164.698c.521 2.1 1.025 4.232 1.559 6.487l.059.25c.148.617.297 1.246.448 1.888l.002.011z" fill="#fff"/><path fill-rule="evenodd" clip-rule="evenodd" d="M232.79 15.914a142.632 142.632 0 00-3.72 3.402c.244.013.548-.012.88-.039.801-.065 1.766-.143 2.446.257 3.939 2.748 7.615 1.309 11.335-.349.317-.143.539-.533.816-1.018.144-.252.303-.53.497-.814.136-.024.326-.032.548-.04.567-.022 1.337-.051 1.903-.396 5.646-3.576 9.847-8.33 11.948-14.742.175-.567-.438-1.527-.919-2.094-.219-.218-1.182.044-1.663.306-1.882 1.09-3.764 2.224-5.558 3.445-.744.48-1.488 1.09-2.057 1.832-.699.88-1.522 1.483-2.39 2.119-.165.12-.331.242-.499.367-1.428 1.06-3.09 1.76-4.75 2.462-2.715 1.146-5.426 2.29-7.11 4.997-.154.214-.587.235-1.074.258-.207.01-.424.021-.633.047zm1.417 1.748l-.017-.003.035-.01c8.945-2.49 15.611-7.859 21.845-14.267l.66-.684h-.001.001c-1.518 6.216-14.269 15.038-21.23 15.074a6.718 6.718 0 01-1.293-.11z" fill="#e6136a"/></svg>