<svg width="16" height="18" viewBox="0 0 16 18" fill="none" xmlns="http://www.w3.org/2000/svg">
<path fill-rule="evenodd" clip-rule="evenodd" d="M-0.5 3.17705L-0.42599 2.86646C-0.366783 2.74783 1.07746 0 6.93057 0C12.7879 0 14.2047 2.7543 14.2618 2.87293L14.3315 3.17705C14.3315 15.8529 7.35772 17.5611 7.06168 17.628L6.78255 17.6301C6.4844 17.5676 -0.5 15.9478 -0.5 3.17705ZM10.901 10.2666C10.8523 10.4712 9.71893 14.4 7.09688 14.4C4.47482 14.4 3.34141 10.4712 3.29489 10.2666L3.17648 9.75L3.59727 9.91367L3.61372 9.91981C3.81945 9.99729 5.88595 10.7755 7.09899 10.7755C8.33522 10.7755 10.4579 9.96725 10.5921 9.91615L10.5986 9.91367L11.0194 9.75L10.901 10.2666ZM6.46369 6.66705C6.49964 6.58078 6.48272 6.48156 6.42351 6.41254C6.4193 6.40757 6.40492 6.38264 6.38147 6.34198C6.18115 5.99468 5.31904 4.5 4.48234 4.5C3.52527 4.5 2.21732 6.11007 1.87379 6.53297L1.87377 6.53299C1.82718 6.59034 1.79833 6.62585 1.79051 6.63254C1.71227 6.69941 1.68478 6.81156 1.72284 6.90862C1.75879 7.00137 1.8476 7.06176 1.94487 7.06176C1.9491 7.06176 6.25646 6.81588 6.25646 6.81588C6.34739 6.80941 6.42774 6.75333 6.46369 6.66705ZM12.1131 7.06176L7.81424 6.81588C7.72331 6.80941 7.64296 6.75333 7.60701 6.66705C7.57106 6.58078 7.58798 6.48156 7.64719 6.41254C7.6514 6.40757 7.66578 6.38264 7.68923 6.34198C7.88955 5.99468 8.75166 4.5 9.58836 4.5C10.5473 4.5 11.8537 6.10998 12.197 6.53293C12.2435 6.59031 12.2724 6.62584 12.2802 6.63254C12.3584 6.70156 12.3859 6.81156 12.3479 6.90862C12.3098 7.00137 12.2231 7.06176 12.1131 7.06176Z" fill="#F2F0F0"/>
</svg>
