<svg width="18" height="18" viewBox="0 0 18 18" fill="none" xmlns="http://www.w3.org/2000/svg">
<path fill-rule="evenodd" clip-rule="evenodd" d="M5.94995 8.22295C6.03995 8.15567 6.15284 8.15072 6.23834 8.26142L7.33732 9.68185L8.62276 8.36852L7.31286 7.0282C7.2168 6.92965 7.22091 6.79982 7.2796 6.69655C7.9728 5.47322 7.60165 4.19725 6.60734 3.23695L3.41802 0.229823C3.20945 0.0347481 3.00089 0.0205731 2.81912 0.229598C2.63678 0.439298 2.63717 0.709748 2.81893 0.918773L5.45828 3.95335C5.65041 4.17475 5.65041 4.4596 5.45828 4.68055L5.4438 4.69742C5.25167 4.91815 5.00358 4.91815 4.81126 4.69742L2.1723 1.6624C1.99034 1.45337 1.75517 1.45315 1.57302 1.66262C1.39086 1.8721 1.39106 2.14255 1.57321 2.35135L4.21197 5.3866C4.40449 5.60777 4.40449 5.89285 4.21197 6.11357L4.19789 6.13045C4.00576 6.35117 3.75767 6.35117 3.56534 6.13022L0.92619 3.0952C0.744233 2.88617 0.509059 2.88572 0.327103 3.0952C0.145146 3.30445 0.157668 3.54407 0.327299 3.78392L2.94219 7.45165C3.77743 8.59532 4.88619 9.02035 5.94995 8.22295ZM12.0068 2.01296C10.5235 3.71869 10.3995 5.57876 10.8689 6.80276C10.9125 6.91571 10.9049 7.05431 10.8084 7.15241L3.00365 15.1278C2.34313 15.8028 2.37346 16.606 3.0197 17.3492C3.66593 18.0926 4.36422 18.127 4.95098 17.3676L11.8865 8.39171C11.9722 8.28124 12.0921 8.27269 12.1907 8.32241C13.2548 8.86174 14.8721 8.71909 16.3555 7.01359C17.9227 5.21156 18.3015 2.58064 17.0816 1.17754C15.8613 -0.225338 13.574 0.210938 12.0068 2.01296ZM10.9495 10.749L15.2301 15.1293C15.8901 15.8041 15.8599 16.6071 15.2139 17.3487C14.568 18.0914 13.8702 18.127 13.2836 17.3676L9.55701 12.551L10.9495 10.749Z" fill="#F2F0F0"/>
</svg>
