<svg width="40" height="40" viewBox="0 0 40 40" fill="none" xmlns="http://www.w3.org/2000/svg">
<path d="M19.0685 39.7163L19.0574 39.7088L19.0192 39.683C18.9868 39.661 18.9405 39.6293 18.8813 39.5883C18.7629 39.5063 18.5928 39.3869 18.3784 39.232C17.9496 38.9223 17.3426 38.4704 16.6167 37.8923C15.1676 36.7384 13.231 35.0714 11.2888 33.0212C7.47247 28.9929 3.33203 23.1699 3.33203 16.6667C3.33203 12.2464 5.08798 8.00716 8.21358 4.88155C11.3392 1.75595 15.5784 0 19.9987 0C24.419 0 28.6582 1.75595 31.7838 4.88155C34.9094 8.00716 36.6654 12.2464 36.6654 16.6667C36.6654 23.1699 32.5249 28.9929 28.7086 33.0212C26.7664 35.0714 24.8298 36.7384 23.3807 37.8923C22.6548 38.4704 22.0478 38.9223 21.619 39.232C21.4046 39.3869 21.2345 39.5063 21.1161 39.5883C21.0569 39.6293 21.0106 39.661 20.9782 39.683L20.94 39.7088L20.9289 39.7163L20.9253 39.7187C20.9253 39.7187 20.9232 39.7201 19.9987 38.3333L20.9232 39.7201C20.3634 40.0933 19.6331 40.0927 19.0733 39.7195L19.0685 39.7163Z" fill="#FF591D"/>
<path fill-rule="evenodd" clip-rule="evenodd" d="M19.9987 13.3333C18.1577 13.3333 16.6654 14.8257 16.6654 16.6667C16.6654 18.5076 18.1577 20 19.9987 20C21.8396 20 23.332 18.5076 23.332 16.6667C23.332 14.8257 21.8396 13.3333 19.9987 13.3333ZM13.332 16.6667C13.332 12.9848 16.3168 10 19.9987 10C23.6806 10 26.6654 12.9848 26.6654 16.6667C26.6654 20.3486 23.6806 23.3333 19.9987 23.3333C16.3168 23.3333 13.332 20.3486 13.332 16.6667Z" fill="white"/>
</svg>

