<svg width="18" height="18" viewBox="0 0 18 18" fill="none" xmlns="http://www.w3.org/2000/svg">
<path fill-rule="evenodd" clip-rule="evenodd" d="M9.77211 6.83434C11.6358 6.83302 13.1456 5.30995 13.1447 3.43218C13.1439 1.55441 11.6326 0.0327644 9.76895 0.0332032C7.9053 0.0336423 6.39474 1.556 6.39474 3.43377C6.39605 5.31224 7.90776 6.83434 9.77211 6.83434ZM16.8158 7.59562C17.0751 7.47279 17.3791 7.49447 17.6187 7.65289C17.851 7.80825 17.9899 8.07116 17.9882 8.3521V16.3082C17.9922 16.5966 17.8491 16.8669 17.6092 17.0241C17.4743 17.1092 17.3184 17.1547 17.1592 17.1554C17.0408 17.1557 16.9237 17.1305 16.8158 17.0814L12.5526 15.1198V16.313C12.5526 16.7743 12.1815 17.1482 11.7237 17.1482H0.828947C0.371132 17.1482 4.31927e-09 16.7743 4.31927e-09 16.313V8.3521C-2.26329e-05 8.1285 0.0889363 7.91422 0.246965 7.75724C0.404993 7.60026 0.618894 7.51367 0.840789 7.51687H11.7355C12.1933 7.51687 12.5645 7.89081 12.5645 8.3521V9.54528L16.8158 7.59562ZM2.7 8.9998C2.20294 8.9998 1.8 9.40275 1.8 9.89981C1.8 10.3969 2.20294 10.7998 2.7 10.7998H9.9C10.3971 10.7998 10.8 10.3969 10.8 9.89981C10.8 9.40275 10.3971 8.9998 9.9 8.9998H2.7ZM5.3188 5.155C4.90358 6.16375 3.92596 6.82099 2.84211 6.82002C1.3651 6.81739 0.168397 5.61163 0.16579 4.12343C0.164832 3.03136 0.817121 2.04633 1.81829 1.62797C2.81946 1.20961 3.97219 1.44037 4.73859 2.21258C5.50499 2.98479 5.73402 4.14625 5.3188 5.155Z" fill="#F2F0F0"/>
</svg>
