<svg width="18" height="18" viewBox="0 0 18 18" fill="none" xmlns="http://www.w3.org/2000/svg">
<path fill-rule="evenodd" clip-rule="evenodd" d="M7.29876 3.03032C6.58355 2.34344 5.70902 2 4.67516 2C3.64129 2 2.77031 2.34344 2.06218 3.03032C1.35406 3.7172 1 4.54924 1 5.52645C1 6.50367 1.35406 7.33571 2.06218 8.02259C2.77031 8.70947 3.64129 9.05291 4.67516 9.05291C5.70902 9.05291 6.58355 8.70947 7.29876 8.02259C8.01396 7.33571 8.37156 6.50367 8.37156 5.52645C8.37156 4.54924 8.01396 3.7172 7.29876 3.03032ZM4.67969 7C5.50811 7 6.17969 6.32843 6.17969 5.5C6.17969 4.67157 5.50811 4 4.67969 4C3.85126 4 3.17969 4.67157 3.17969 5.5C3.17969 6.32843 3.85126 7 4.67969 7ZM12.6806 2.14868C13.4373 2.14868 13.9199 2.95662 13.5611 3.62286L6.62932 16.4934C6.4549 16.8173 6.11674 17.0193 5.74889 17.0193H5.41461C4.6579 17.0193 4.17537 16.2113 4.53418 15.5451L11.4659 2.67451C11.6403 2.35064 11.9785 2.14868 12.3463 2.14868H12.6806ZM13.6752 10C14.709 10 15.5835 10.3434 16.2988 11.0303C17.014 11.7172 17.3716 12.5492 17.3716 13.5265C17.3716 14.5037 17.014 15.3357 16.2988 16.0226C15.5835 16.7095 14.709 17.0529 13.6752 17.0529C12.6413 17.0529 11.7703 16.7095 11.0622 16.0226C10.3541 15.3357 10 14.5037 10 13.5265C10 12.5492 10.3541 11.7172 11.0622 11.0303C11.7703 10.3434 12.6413 10 13.6752 10ZM15.1797 13.5C15.1797 14.3284 14.5081 15 13.6797 15C12.8513 15 12.1797 14.3284 12.1797 13.5C12.1797 12.6716 12.8513 12 13.6797 12C14.5081 12 15.1797 12.6716 15.1797 13.5Z" fill="#F2F0F0"/>
</svg>
