<svg width="17" height="17" viewBox="0 0 17 17" fill="none" xmlns="http://www.w3.org/2000/svg">
<path fill-rule="evenodd" clip-rule="evenodd" d="M15.2149 11.6586C14.3185 10.6271 12.7612 10.2533 11.428 10.6164L9.94249 8.90733L14.8799 2.34477C15.2784 1.80471 15.1987 1.05474 14.703 0.681275C14.2064 0.307432 13.8014 0 13.8014 0L8.00012 6.67363L2.19862 0C2.19862 0 1.79384 0.307432 1.2979 0.681275C0.802166 1.05474 0.72207 1.80471 1.1205 2.34477L6.05816 8.90733L4.57219 10.6164C3.2376 10.2533 1.68178 10.6271 0.785368 11.6586C0.193357 12.3383 -0.0780664 13.1929 0.0194413 14.0636C0.118178 14.9346 0.576014 15.7182 1.30548 16.2689C1.93026 16.7405 2.71668 17 3.51907 17C4.58653 17 5.58312 16.5576 6.25584 15.7848C6.84662 15.1037 7.11927 14.2501 7.02053 13.3795C7.01078 13.2926 6.98945 13.2094 6.96815 13.1262L6.96815 13.1262C6.95946 13.0923 6.95079 13.0585 6.9429 13.0244L8.00032 11.5567L9.05713 13.0244C9.04931 13.0584 9.0407 13.0923 9.03208 13.1262L9.03208 13.1262C9.01091 13.2094 8.98972 13.2927 8.98011 13.3795C8.88117 14.2501 9.15423 15.1037 9.74502 15.7848C10.4169 16.5576 11.4143 17 12.4812 17C13.284 17 14.07 16.7405 14.6935 16.2689C15.4248 15.7182 15.8821 14.9348 15.9806 14.0636C16.0779 13.1929 15.8073 12.3381 15.2149 11.6586ZM4.76454 14.6587C4.22579 15.2766 3.18209 15.384 2.51388 14.8785C2.1812 14.6293 1.9741 14.273 1.92883 13.8774C1.88376 13.4816 2.00749 13.0927 2.27769 12.7828C2.5823 12.4313 3.03603 12.2311 3.52111 12.2311C3.89087 12.2311 4.23849 12.3454 4.52692 12.5641C4.8598 12.8133 5.06731 13.1696 5.11197 13.5652C5.1556 13.9612 5.03166 14.3499 4.76454 14.6587ZM11.2369 14.66C11.7738 15.2768 12.819 15.384 13.4862 14.8787C13.8186 14.6295 14.0261 14.2732 14.0706 13.8776C14.1161 13.4818 13.9923 13.0929 13.7228 12.7843C13.4177 12.4316 12.9634 12.2315 12.4791 12.2315C12.1092 12.2315 11.7613 12.3456 11.4741 12.5633C11.1404 12.8137 10.9331 13.17 10.8881 13.5656C10.8448 13.9614 10.9684 14.3501 11.2369 14.66Z" fill="#F2F0F0"/>
</svg>
