<svg width="18" height="18" viewBox="0 0 18 18" fill="none" xmlns="http://www.w3.org/2000/svg">
<path fill-rule="evenodd" clip-rule="evenodd" d="M0.898655 8.78427L6.4502 3.21224C7.04718 2.61736 7.86104 2.29181 8.7036 2.31088L14.3985 2.45428L16.5905 0.241851C16.7991 0.033267 17.1031 -0.0481943 17.388 0.0281527C17.6729 0.1045 17.8955 0.327056 17.9718 0.611987C18.0482 0.896918 17.9667 1.20094 17.7581 1.40952L15.5457 3.60146L15.6686 9.2964C15.6877 10.139 15.3622 10.9528 14.7673 11.5498L9.21573 17.1013C8.01603 18.2996 6.07252 18.2996 4.87282 17.1013L0.898655 13.1272C-0.299551 11.9275 -0.299551 9.98397 0.898655 8.78427ZM10.7785 4.50746C9.49112 4.51776 8.39011 5.43562 8.1483 6.70014C7.9065 7.96465 8.59118 9.22398 9.78394 9.70854C10.9767 10.1931 12.3457 9.76806 13.0542 8.69317C13.6551 7.78172 13.6393 6.61806 13.0625 5.73337L12.7392 6.05966C12.5306 6.26825 12.2266 6.34971 11.9417 6.27336C11.6568 6.19701 11.4342 5.97446 11.3579 5.68953C11.2815 5.4046 11.363 5.10058 11.5716 4.89199L11.7757 4.68979C11.4608 4.56776 11.1228 4.50471 10.7785 4.50746Z" fill="#F2F0F0"/>
</svg>
