<svg width="24" height="24" viewBox="0 0 24 24" fill="none" xmlns="http://www.w3.org/2000/svg">
<path fill-rule="evenodd" clip-rule="evenodd" d="M9.17157 8C9.17157 7.44772 9.61929 7 10.1716 7L16.1716 7C16.7239 7 17.1716 7.44772 17.1716 8V14C17.1716 14.5523 16.7239 15 16.1716 15C15.6193 15 15.1716 14.5523 15.1716 14V9H10.1716C9.61929 9 9.17157 8.55228 9.17157 8Z" fill="#E6136A"/>
<path fill-rule="evenodd" clip-rule="evenodd" d="M16.8787 7.29289C17.2692 7.68342 17.2692 8.31658 16.8787 8.70711L8.70711 16.8787C8.31658 17.2692 7.68342 17.2692 7.29289 16.8787C6.90237 16.4882 6.90237 15.855 7.29289 15.4645L15.4645 7.29289C15.855 6.90237 16.4882 6.90237 16.8787 7.29289Z" fill="#E6136A"/>
</svg>
