<svg width="262" height="133" viewBox="0 0 262 133" fill="none" xmlns="http://www.w3.org/2000/svg">
    <path
        d="M23.4161 68.559C24.8166 65.2442 26.2171 61.8857 27.5738 58.5709C29.412 54.1656 31.2501 49.7167 33.1758 45.3115C33.4821 44.6572 34.3137 43.9157 34.9702 43.8285C38.0775 43.3923 41.1848 43.1743 44.2922 42.9998C44.7298 42.9562 45.255 43.7413 45.6489 44.1774C45.7802 44.3519 45.6927 44.7445 45.6927 45.0498C45.6927 59.8794 45.6489 74.709 45.6927 89.4949C45.6927 91.2396 45.2113 91.9811 43.4169 92.0683C40.222 92.2428 37.0709 92.6353 33.3071 92.9843C33.6134 84.7844 33.876 76.8898 34.1824 68.9952C34.0073 68.9516 33.8323 68.908 33.701 68.8644C33.2195 69.9984 32.6506 71.1324 32.2129 72.2664C30.7249 76.2792 29.1931 80.2919 27.7926 84.3482C27.3112 85.6567 26.6985 86.3982 25.1667 86.3546C23.1535 86.3109 20.6589 87.3141 19.2146 86.4418C17.7704 85.6131 17.3327 83.0397 16.5449 81.1642C15.5383 78.7653 14.6193 76.3228 13.6127 73.8802C13.175 72.8335 12.6498 71.8739 11.7307 71.0016C11.9933 78.8089 12.2559 86.6599 12.5185 94.7289C8.36081 95.0779 4.50946 95.4268 0.439282 95.7757C0.395516 94.7289 0.307986 93.9438 0.307986 93.1587C0.307986 78.5036 0.307987 63.8048 0.264221 49.1497C0.264221 47.3614 0.789405 46.7072 2.58379 46.6636C5.20971 46.5763 7.83563 46.271 10.4178 45.9657C11.862 45.7912 12.6061 46.1838 13.2188 47.6231C15.976 54.0348 18.8645 60.3591 21.753 66.7271C22.0156 67.3378 22.3657 67.9484 22.7159 68.559C22.8909 68.6027 23.1535 68.559 23.4161 68.559Z"
        fill="#e6136a" />
    <path
        d="M177.208 79.8557C177.164 78.7652 177.077 78.0674 177.077 77.3695C177.077 62.6708 177.12 48.0156 177.033 33.3169C177.033 31.3105 177.646 30.6999 179.615 30.6563C182.635 30.5691 185.655 30.1765 189.068 29.9148C189.068 39.8594 189.068 49.5858 189.068 59.3559C189.287 59.4431 189.506 59.4868 189.725 59.574C190.162 58.8325 190.644 58.1346 191.038 57.3496C195.633 48.2773 200.185 39.2051 204.824 30.1329C205.218 29.3914 206.224 28.6063 207.056 28.4755C209.507 28.0393 212.001 27.9957 214.452 27.6904C216.072 27.4723 216.684 27.9957 216.641 29.6967C216.553 34.4945 216.641 39.2923 216.641 44.0902C216.641 54.0347 216.597 64.0229 216.641 73.9674C216.641 75.9738 216.159 76.8025 213.971 76.8025C210.951 76.8025 207.887 77.2387 204.518 77.5004C204.518 67.8175 204.518 58.3527 204.518 48.888C204.299 48.8007 204.124 48.7571 203.905 48.6699C203.467 49.3241 202.986 49.9784 202.636 50.6762C198.215 59.4432 193.751 68.1664 189.375 76.977C188.631 78.4599 187.712 79.1578 186.049 79.245C183.291 79.3323 180.403 79.594 177.208 79.8557Z"
        fill="#e6136a" />
    <path
        d="M249.071 44.8316C248.633 45.6167 248.152 46.4018 247.758 47.1869C243.337 55.8666 238.917 64.5463 234.584 73.226C233.84 74.7089 232.877 75.3632 231.214 75.4068C228.807 75.4504 226.4 75.6685 224.037 75.8866C222.724 76.0174 222.199 75.5813 222.199 74.2291C222.242 59.1378 222.199 44.0029 222.286 28.9116C222.286 28.301 223.205 27.2106 223.818 27.1234C226.838 26.6872 229.901 26.5127 232.921 26.2946C234.453 26.1638 234.234 27.3414 234.234 28.2138C234.278 33.8839 234.234 39.554 234.278 45.2242C234.278 47.9284 234.278 50.589 234.278 53.2932C234.278 54.0347 234.409 54.8198 234.453 55.5613C234.628 55.6049 234.847 55.6485 235.022 55.7358C235.372 55.1687 235.766 54.6453 236.072 54.0783C240.711 44.8752 245.394 35.6722 249.99 26.4255C250.559 25.2478 251.215 24.6372 252.572 24.5936C254.891 24.4627 257.211 24.2447 259.53 23.8957C261.412 23.5904 261.938 24.2447 261.938 26.0766C261.894 38.2019 261.894 50.3273 261.894 62.4527C261.894 65.1569 261.806 67.8175 261.938 70.5217C261.981 72.0919 261.631 72.877 259.837 72.9206C257.298 72.9643 254.76 73.2696 252.222 73.6185C250.427 73.8802 249.815 73.3568 249.815 71.4813C249.902 63.6303 249.858 55.7794 249.858 47.9284C249.858 47.0125 249.858 46.0965 249.858 45.1369C249.508 44.9625 249.289 44.8753 249.071 44.8316Z"
        fill="#e6136a" />
    <path
        d="M144.165 33.7532C144.165 39.7723 144.165 45.4425 144.165 51.1562C144.34 51.2435 144.559 51.2871 144.734 51.3743C145.259 50.6764 145.872 50.0222 146.309 49.2807C149.461 44.2212 152.524 39.1181 155.675 34.0586C156.069 33.4479 156.813 32.7064 157.426 32.6628C161.846 32.183 166.266 31.8341 171.256 31.3979C168.805 34.7128 166.66 37.5915 164.472 40.4702C160.796 45.3552 157.163 50.2403 153.399 55.0381C152.218 56.5647 152.305 57.5678 153.531 59.0072C159.001 65.4188 164.385 71.9177 169.768 78.4165C170.162 78.8963 170.468 79.4633 171.081 80.3356C166.135 80.7282 161.627 81.1207 157.076 81.3824C156.507 81.426 155.719 80.6846 155.281 80.0739C152.437 75.974 149.636 71.7868 146.835 67.6432C146.266 66.7709 145.565 65.9858 144.515 64.5901C144.296 66.0294 144.121 66.7709 144.121 67.5124C144.077 71.9613 144.077 76.3665 144.121 80.8154C144.121 82.1239 143.815 82.7781 142.327 82.8218C139.482 82.9526 136.681 83.2579 133.836 83.5633C132.48 83.6941 132.042 83.2143 132.042 81.8622C132.086 66.7273 132.086 51.636 132.129 36.5011C132.129 35.8905 132.698 34.7564 133.136 34.7128C136.594 34.3203 140.139 34.1022 144.165 33.7532Z"
        fill="#e6136a" />
    <path
        d="M96.1543 87.3578C96.1543 78.0239 96.1543 69.0389 96.1543 60.0539C96.1543 53.5987 96.1543 47.1435 96.1543 40.6882C96.1543 39.6414 96.0667 38.6819 97.5985 38.551C107.008 37.7659 116.418 36.9372 125.871 36.1521C126.002 36.1521 126.134 36.2393 126.44 36.3266C126.44 39.8595 126.44 43.4797 126.44 47.3615C123.245 47.6669 120.006 47.9722 116.812 48.2775C114.842 48.452 112.873 48.7573 110.947 48.7137C108.759 48.67 108.277 49.6732 108.321 51.6359C108.409 57.3497 108.365 63.1071 108.365 68.8208C108.365 74.0548 108.321 79.2888 108.365 84.5228C108.365 86.1366 108.015 86.8344 106.177 86.8344C103.638 86.8344 101.1 87.227 98.5614 87.4015C97.8173 87.4015 97.1171 87.3578 96.1543 87.3578Z"
        fill="#e6136a" />
    <path
        d="M144.515 120.375C144.515 119.285 144.515 118.5 144.515 117.715C144.515 108.468 144.559 99.2651 144.471 90.0184C144.428 87.9248 145.128 87.3578 147.141 87.2269C154.712 86.6599 162.24 85.9184 169.812 85.2206C170.162 85.1769 170.512 85.2206 171.081 85.2206C171.081 87.7067 171.081 90.1056 171.081 92.8098C165.172 93.3332 159.177 93.8566 153.049 94.4236C153.049 96.1683 153.049 97.7821 153.049 99.7012C158.608 99.2215 164.166 98.7853 169.855 98.3055C169.855 100.617 169.855 102.798 169.855 105.328C164.297 105.851 158.695 106.331 152.962 106.854C152.962 108.555 152.962 110.038 152.962 111.914C159.001 111.434 164.954 110.911 171.081 110.431C171.081 113.091 171.081 115.49 171.081 118.107C162.284 118.805 153.575 119.59 144.515 120.375Z"
        fill="white" />
    <path
        d="M55.6713 95.4268C55.6713 106.505 55.6713 117.235 55.6713 128.27C53.0454 128.532 50.4194 128.793 47.5747 129.099C47.5747 122.643 47.5747 116.363 47.5747 110.082C47.4434 110.038 47.2683 109.995 47.137 109.907C46.7431 110.562 46.3493 111.172 45.9991 111.827C43.2419 117.279 40.4847 122.687 37.815 128.183C37.2023 129.404 36.5458 130.145 35.1016 130.145C33.2196 130.189 31.3377 130.407 29.2808 130.582C29.2808 119.59 29.2808 108.817 29.2808 97.7384C31.8629 97.4767 34.4013 97.2586 37.2898 96.9969C37.2898 103.583 37.2898 109.995 37.2898 116.406C37.4649 116.45 37.5962 116.494 37.7712 116.537C38.0338 116.101 38.384 115.708 38.6028 115.229C41.4913 109.515 44.4236 103.845 47.2246 98.0874C47.9248 96.648 48.7563 95.8193 50.4632 95.8193C52.0825 95.8629 53.7456 95.6012 55.6713 95.4268Z"
        fill="white" />
    <path
        d="M76.3284 106.113C76.3284 102.885 76.3284 99.9194 76.3284 96.9535C76.3722 93.2025 75.8033 93.595 79.6108 93.3333C81.0113 93.2461 82.3681 93.0716 83.7248 92.9844C83.9436 92.9844 84.1187 93.0716 84.4688 93.1588C84.4688 103.976 84.4688 114.749 84.4688 125.74C81.7991 126.002 79.217 126.22 76.3722 126.482C76.3722 122.338 76.3722 118.369 76.3722 114.095C73.0898 114.356 70.07 114.531 67.0502 114.88C66.7001 114.923 66.2186 115.927 66.1749 116.494C66.0873 120.027 66.1311 123.56 66.1311 127.311C63.3301 127.572 60.748 127.79 58.0345 128.052C58.0345 117.061 58.0345 106.287 58.0345 95.2088C60.6167 94.9907 63.2426 94.7727 66.0873 94.5546C66.0873 98.7854 66.0873 102.667 66.0873 106.985C69.501 106.68 72.7397 106.418 76.3284 106.113Z"
        fill="white" />
    <path
        d="M26.4361 130.974C23.1099 131.236 20.0901 131.541 17.0265 131.672C16.5014 131.672 15.8449 131.018 15.451 130.495C13.219 127.354 11.0745 124.17 8.361 121.03C8.361 123.341 8.361 125.697 8.361 128.008C8.361 132.719 8.361 132.763 3.59058 132.981C2.54021 133.024 1.44607 132.981 0.176879 132.981C0.133114 132.065 0.0455834 131.323 0.0455834 130.538C0.0455834 121.292 0.0893478 112.088 0.00181704 102.842C-0.0419483 100.835 0.702064 100.138 2.54021 100.094C4.33459 100.05 6.17274 99.8322 8.22971 99.7014C8.22971 103.583 8.22971 107.291 8.22971 111.042C8.40477 111.085 8.57983 111.172 8.75489 111.216C9.14878 110.605 9.58644 110.038 9.93656 109.384C11.8185 106.375 13.6566 103.278 15.6261 100.312C16.1075 99.6141 16.9828 98.8727 17.7706 98.7854C20.484 98.3929 23.285 98.3056 26.4799 98.0439C25.1231 99.9631 23.9852 101.577 22.8036 103.147C20.1777 106.636 17.6393 110.169 14.8383 113.528C13.6566 114.967 13.9192 115.796 14.9696 117.017C18.427 121.03 21.797 125.13 25.2107 129.23C25.6046 129.71 25.9109 130.233 26.4361 130.974Z"
        fill="white" />
    <path
        d="M124.471 122.164C124.471 113.702 124.471 105.546 124.471 97.0405C121.538 97.2586 118.781 97.4767 115.849 97.6948C115.849 95.1214 115.849 92.7225 115.849 89.9747C124.558 89.1896 133.267 88.4481 142.327 87.6194C142.327 90.0619 142.414 92.1991 142.239 94.3363C142.196 94.7289 141.364 95.3395 140.839 95.4267C139.044 95.6884 137.206 95.8629 135.412 95.9065C133.88 95.9501 133.442 96.6044 133.486 98.0437C133.53 105.11 133.442 112.132 133.574 119.198C133.617 120.899 133.005 121.509 131.385 121.553C129.153 121.727 127.009 121.989 124.471 122.164Z"
        fill="white" />
    <path
        d="M206.443 89.5822C206.443 87.1833 206.356 85.0025 206.487 82.8653C206.531 82.4728 207.275 81.8185 207.756 81.7749C216.071 81.0334 224.387 80.3356 232.921 79.6377C232.921 82.2111 232.921 84.6536 232.921 87.2706C230.12 87.5759 227.319 87.8376 224.299 88.1865C224.299 96.5609 224.299 104.804 224.299 113.266C221.236 113.528 218.391 113.746 215.284 114.007C215.284 105.546 215.284 97.3896 215.284 88.9716C212.264 89.1897 209.507 89.3642 206.443 89.5822Z"
        fill="white" />
    <path fill-rule="evenodd" clip-rule="evenodd"
        d="M78.6536 85.3765C78.6508 86.5805 78.6479 87.8056 78.6479 89.0589C79.388 88.9927 80.1136 88.9244 80.8279 88.8573C83.4089 88.6146 85.8426 88.3857 88.2763 88.3174C90.3771 88.2301 90.9022 87.3578 90.9022 85.3515C90.8366 74.4928 90.8448 63.6587 90.853 52.8123C90.8558 49.1944 90.8585 45.5751 90.8585 41.9531C90.8585 41.3272 90.7972 40.7013 90.7304 40.0198C90.6995 39.7039 90.6674 39.3761 90.6397 39.0308C88.0548 39.2841 85.4835 39.5012 82.926 39.7171C77.5592 40.1701 72.2527 40.618 67.0064 41.386C57.7719 42.7382 52.52 48.103 51.2508 56.9571C50.4193 62.6709 52.2574 70.0857 59.9164 72.441C60.2153 72.5072 60.489 72.699 60.8331 72.9401C60.9424 73.0167 61.0589 73.0983 61.1856 73.1825C59.2594 76.8114 57.3491 80.4245 55.4067 84.0982C54.1274 86.5178 52.8342 88.9637 51.5134 91.4578L51.7083 91.4396C56.313 91.0107 60.4561 90.6248 64.5993 90.3237C65.9122 90.2365 66.6125 89.6695 67.1814 88.4482C68.0989 86.4549 69.0549 84.4845 70.0106 82.5146C71.3343 79.7864 72.6576 77.059 73.8775 74.2729C74.6961 72.3965 76.0889 72.5801 77.4115 72.7545C77.5031 72.7666 77.5944 72.7786 77.6851 72.7899C78.079 72.8335 78.6042 74.3165 78.6042 75.1452C78.6695 78.4953 78.6617 81.8455 78.6536 85.3765ZM76.8825 51.7359C77.4317 51.722 78.0023 51.7074 78.6042 51.6795C78.6041 51.6795 78.6042 51.6795 78.6042 51.6795C78.6042 52.5892 78.6099 53.4791 78.6155 54.3536C78.6318 56.9173 78.6473 59.3482 78.5167 61.7549C78.5167 61.7553 78.5167 61.7557 78.5166 61.7561C78.5154 62.3228 77.5984 63.1931 76.9861 63.2813C76.9857 63.2814 76.9853 63.2815 76.985 63.2815C74.3153 63.6305 71.6456 63.8049 68.9321 63.8922C68.9322 63.8922 68.9321 63.8922 68.9321 63.8922C68.376 63.9078 67.8632 63.8815 67.3929 63.8135C65.2359 63.5017 63.9722 62.3131 63.5051 60.272C63.454 60.0568 63.4102 59.8438 63.3739 59.6334C63.295 59.1776 63.2511 58.7345 63.2424 58.3073C63.1921 55.8862 64.2643 53.9597 66.5249 53.1625C66.5265 53.162 66.528 53.1614 66.5295 53.1609C68.245 52.5462 70.1485 52.3332 72.0293 52.1226C72.4825 52.0719 72.9345 52.0213 73.3821 51.9653C73.4452 51.9574 73.5082 51.9494 73.5712 51.9412C74.6428 51.7929 75.7145 51.7656 76.8825 51.7359Z"
        fill="#e6136a" />
    <path fill-rule="evenodd" clip-rule="evenodd"
        d="M86.7983 107.472C86.7934 108.005 86.7886 108.539 86.7886 109.079C86.7886 109.733 86.7837 110.387 86.7788 111.042C86.7691 112.35 86.7594 113.659 86.7886 114.967C86.8323 118.587 88.4954 121.248 91.7341 122.818C96.9859 125.391 102.194 124.824 107.227 122.12C111.516 119.809 113.529 116.101 113.442 111.216C113.42 109.58 113.431 107.945 113.442 106.309C113.453 104.674 113.464 103.038 113.442 101.402C113.398 96.8663 110.86 93.5078 106.527 92.1557C102.238 90.8472 97.9925 91.1961 93.9661 93.1153C89.3707 95.3397 86.6135 98.9163 86.7886 104.281C86.8177 105.355 86.808 106.41 86.7983 107.472ZM104.367 115.375C105.099 114.659 105.468 113.627 105.389 112.307C105.295 111.187 105.313 110.068 105.331 108.934C105.336 108.618 105.341 108.301 105.343 107.982C105.344 107.839 105.345 107.696 105.345 107.552V107.596C105.345 107.581 105.345 107.567 105.345 107.552H105.389C105.389 107.116 105.392 106.68 105.394 106.244C105.403 104.935 105.411 103.627 105.345 102.318C105.301 101.577 105.214 100.574 104.732 100.094C102.85 98.3056 100.531 98.3056 98.2113 99.0471C97.6854 99.2144 97.2024 99.4187 96.7747 99.6689C95.5042 100.39 94.7101 101.537 94.7101 103.278V113.528C94.7101 115.272 95.6292 116.537 97.3361 116.712C98.9991 116.886 100.837 116.799 102.457 116.406C103.24 116.211 103.886 115.865 104.367 115.375Z"
        fill="white" />
    <path fill-rule="evenodd" clip-rule="evenodd"
        d="M243.556 111.521V101.969C243.973 101.917 244.369 101.872 244.752 101.829C245.336 101.762 245.89 101.699 246.445 101.62C247.208 101.503 247.981 101.416 248.756 101.328C250.291 101.154 251.832 100.979 253.316 100.574C259.268 98.9162 262.9 92.6354 261.806 86.3546C260.843 80.9026 256.335 77.7622 249.771 78.1548C247.551 78.2737 245.33 78.4705 243.11 78.6673C241.26 78.8313 239.41 78.9954 237.56 79.1143C235.853 79.2015 235.241 79.7686 235.241 81.6004C235.306 88.6981 235.298 95.7712 235.29 102.857C235.287 105.22 235.284 107.584 235.284 109.951C235.328 110.649 235.372 111.347 235.416 112.263C236.301 112.183 237.153 112.107 237.987 112.032C239.876 111.863 241.674 111.703 243.556 111.521ZM243.6 94.6853C243.6 94.6854 243.6 94.6854 243.6 94.6854V86.2238C244.422 86.1799 245.244 86.1164 246.065 86.0529C247.69 85.9274 249.309 85.8023 250.909 85.8312C252.834 85.8749 253.622 87.3578 253.797 89.1025C253.816 89.2872 253.825 89.4714 253.826 89.6539C253.847 91.6372 252.819 93.4109 251.084 93.813C249.489 94.102 247.875 94.257 246.204 94.4174C245.352 94.4992 244.486 94.5823 243.6 94.6854V94.6853Z"
        fill="white" />
    <path fill-rule="evenodd" clip-rule="evenodd"
        d="M201.805 115.311C202.57 115.239 203.354 115.164 204.167 115.098C203.975 114.55 203.8 114.071 203.642 113.64C203.548 113.384 203.461 113.144 203.379 112.917C201.584 108.105 199.804 103.279 198.022 98.446C196.718 94.9121 195.413 91.3749 194.101 87.8377C192.441 83.3823 192.395 83.3851 187.801 83.6697C187.672 83.6776 187.54 83.6858 187.405 83.6941C185.304 83.8249 184.56 84.7409 183.991 86.5292C182.52 91.1614 180.946 95.7681 179.368 100.388C178.881 101.815 178.393 103.243 177.908 104.674C177.196 106.801 176.474 108.918 175.741 111.065C174.987 113.277 174.221 115.522 173.444 117.846C173.777 117.809 174.093 117.765 174.396 117.723C175.165 117.616 175.848 117.521 176.507 117.584C180.971 118.107 183.378 116.145 183.904 111.696C183.947 111.172 184.385 110.387 184.735 110.344C185.235 110.278 185.739 110.205 186.244 110.132C188.432 109.814 190.646 109.493 192.744 109.777C193.32 109.837 193.75 111.112 194.177 112.383C194.367 112.946 194.556 113.509 194.757 113.964C194.789 114.026 194.814 114.1 194.841 114.175C194.888 114.309 194.936 114.447 195.02 114.531C195.134 114.626 195.252 114.733 195.373 114.842C195.809 115.237 196.281 115.665 196.727 115.665C198.401 115.635 200.055 115.478 201.805 115.311ZM191.256 102.362C191.256 102.362 191.256 102.362 191.256 102.362C190.578 102.409 189.962 102.451 189.366 102.488C188.288 102.56 187.294 102.626 186.136 102.711C186.139 102.696 186.143 102.681 186.147 102.667C186.143 102.667 186.139 102.667 186.136 102.667C186.967 99.3088 187.711 96.212 188.455 93.1152C188.558 93.0948 188.651 93.0839 188.739 93.0737C188.838 93.062 188.931 93.0512 189.024 93.028C189.078 93.261 189.133 93.4938 189.188 93.7265C189.709 95.8265 190.213 97.9578 190.747 100.213C190.767 100.296 190.786 100.379 190.806 100.463C190.954 101.08 191.103 101.709 191.254 102.351C191.255 102.355 191.255 102.358 191.256 102.362C191.256 102.362 191.256 102.362 191.256 102.362Z"
        fill="white" />
    <path fill-rule="evenodd" clip-rule="evenodd"
        d="M232.79 15.914C231.608 16.9608 230.164 18.2693 229.07 19.3161C229.314 19.3289 229.618 19.3041 229.95 19.2771C230.751 19.212 231.716 19.1335 232.396 19.5342C236.335 22.282 240.011 20.8427 243.731 19.1852C244.048 19.0417 244.27 18.6524 244.547 18.1667C244.691 17.9146 244.85 17.6365 245.044 17.3534C245.18 17.3288 245.37 17.3215 245.592 17.3131C246.159 17.2914 246.929 17.262 247.495 16.9172C253.141 13.3406 257.342 8.58645 259.443 2.17482C259.618 1.60781 259.005 0.648254 258.524 0.0812397C258.305 -0.136843 257.342 0.124855 256.861 0.386554C254.979 1.47697 253.097 2.61099 251.303 3.83225C250.559 4.31203 249.815 4.92266 249.246 5.66414C248.547 6.54404 247.724 7.14658 246.856 7.78262C246.691 7.90326 246.525 8.02511 246.357 8.15029C244.929 9.20956 243.267 9.91083 241.607 10.6116C238.892 11.7576 236.181 12.9022 234.497 15.6087C234.343 15.8229 233.91 15.8439 233.423 15.8675C233.216 15.8775 232.999 15.888 232.79 15.914ZM234.207 17.6618C234.201 17.6608 234.196 17.6597 234.19 17.6587C234.202 17.6554 234.214 17.6522 234.225 17.649C243.17 15.1592 249.836 9.79012 256.07 3.38195C256.29 3.15532 256.51 2.92738 256.73 2.69823C256.73 2.6983 256.73 2.69837 256.729 2.69843C256.73 2.69837 256.73 2.6983 256.73 2.69824C255.212 8.91362 242.461 17.7358 235.5 17.7719C235.042 17.7743 234.61 17.7387 234.207 17.6618Z"
        fill="#e6136a" />
</svg>